<?xml version="1.0" encoding="iso-8859-1"?>
<!-- Generator: Adobe Illustrator 19.0.0, SVG Export Plug-In . SVG Version: 6.00 Build 0)  -->
<svg version="1.1" id="Capa_1" xmlns="http://www.w3.org/2000/svg" xmlns:xlink="http://www.w3.org/1999/xlink" x="0px" y="0px"
	 viewBox="0 0 512 512" style="enable-background:new 0 0 512 512;" xml:space="preserve">
<g>
	<g>
		<path d="M438.421,179.439l-62.687-86.195V31.562C375.734,14.159,361.575,0,344.172,0H167.828
			c-17.403,0-31.562,14.159-31.562,31.562v61.682l-62.687,86.195c-0.923,1.273-1.438,2.847-1.438,4.42v234.458
			c0,4.15,3.364,7.515,7.515,7.515s7.515-3.365,7.515-7.515V191.374h209.409v305.597H87.17v-44.587c0-4.15-3.364-7.515-7.515-7.515
			s-7.515,3.365-7.515,7.515v52.102c0,4.15,3.364,7.515,7.515,7.515h352.689c4.151,0,7.515-3.365,7.515-7.515V183.859
			C439.859,182.271,439.356,180.724,438.421,179.439z M151.296,31.562c0-9.116,7.417-16.532,16.532-16.532h176.344
			c9.116,0,16.532,7.417,16.532,16.532v56.611H151.296V31.562z M94.413,176.344l53.195-73.143h205.854l-53.195,73.143H94.413z
			 M424.83,496.971H311.609V186.303l56.611-77.84l56.611,77.84V496.971z"/>
	</g>
</g>
<g>
	<g>
		<path d="M257.823,266.671c-8.324-3.828-18.201-2.45-25.162,3.515l-40.786,34.959l-40.787-34.96
			c-6.958-5.962-16.835-7.341-25.161-3.514c-8.327,3.829-13.708,12.227-13.708,21.392v96.188c0,12.983,10.563,23.546,23.546,23.546
			c12.983,0,23.546-10.563,23.546-23.546v-44.994l17.24,14.778c8.878,7.61,21.769,7.61,30.648,0l17.24-14.778v44.994
			c0,12.983,10.563,23.546,23.546,23.546c12.983,0,23.546-10.563,23.546-23.546v-96.188
			C271.53,278.898,266.15,270.5,257.823,266.671z M256.501,384.25c0,4.696-3.82,8.517-8.517,8.517s-8.517-3.82-8.517-8.517v-61.332
			c0-6.269-7.618-9.811-12.405-5.705l-29.645,25.409c-3.211,2.753-7.874,2.753-11.086,0l-29.645-25.41
			c-4.781-4.099-12.405-0.579-12.405,5.705v61.333c0,4.696-3.82,8.517-8.517,8.517s-8.517-3.82-8.517-8.517v-96.188
			c0-7.119,8.644-11.107,14.059-6.467l45.676,39.151c2.815,2.412,6.967,2.412,9.781,0l45.674-39.149
			c5.42-4.643,14.061-0.66,14.061,6.465V384.25z"/>
	</g>
</g>
<g>
</g>
<g>
</g>
<g>
</g>
<g>
</g>
<g>
</g>
<g>
</g>
<g>
</g>
<g>
</g>
<g>
</g>
<g>
</g>
<g>
</g>
<g>
</g>
<g>
</g>
<g>
</g>
<g>
</g>
</svg>
